<?xml version="1.0" encoding="UTF-8"?>
<!DOCTYPE svg PUBLIC "-//W3C//DTD SVG 1.1//EN" "http://www.w3.org/Graphics/SVG/1.1/DTD/svg11.dtd">
<svg version="1.1" xmlns="http://www.w3.org/2000/svg" x="0px" y="0px" width="132px" height="132px">
<rect fill="none" width="0" height="132"/>
<path fill="#3CA8E8" d="M18.296,34.594c7.435-0.245,15.321-0.368,23.656-0.368c4.085,0.165,7.354,0.655,9.806,1.471   c3.513,2.289,4.576,5.721,3.187,10.296c-0.573,7.682-0.818,14.75-0.735,21.204c0.326,3.923,0.163,6.742-0.49,8.458   c-0.9,2.779-2.942,4.455-6.129,5.025c-11.031-0.653-19.081-0.49-24.146,0.49c-5.393,1.961-8.825,0.205-10.296-5.271   c-0.328-11.521-0.533-23.043-0.613-34.565C12.29,37.74,14.209,35.494,18.296,34.594z M41.217,41.948   c-5.721-0.163-11.399,0.042-17.038,0.613c-1.961,0.655-3.146,2.206-3.555,4.658c0.081,0.735,0.041,1.513-0.123,2.329   c0,2.043,1.349,3.147,4.045,3.31l18.018-0.123c2.532-0.081,3.717-1.348,3.555-3.8l-0.245-3.309   C45.22,43.501,43.668,42.275,41.217,41.948z M42.442,60.947c-6.128-0.081-12.257-0.04-18.386,0.123   c-2.206,0.245-3.31,1.471-3.31,3.677c0.163,3.677,0.816,6.088,1.961,7.232c1.878,0.327,3.757,0.327,5.638,0l13.851-0.858   c1.879-0.08,3.187-1.429,3.922-4.045l0.245-3.064C46.445,62.215,45.139,61.192,42.442,60.947z M66.222,26.994   c1.226-2.859,3.962-3.88,8.212-3.064c10.459-0.408,21.04-0.531,31.746-0.368c7.354,1.553,9.519,5.393,6.496,11.521   c-1.471,10.787-1.593,31.378-0.367,61.776c0.163,4.903,0,8.212-0.49,9.929c-1.636,4.002-3.923,5.065-6.864,3.187   c-1.471-1.553-2.248-3.229-2.329-5.025l0.245-24.392c0.081-2.287-1.226-3.555-3.922-3.8c-10.216-0.571-17.65-0.448-22.309,0.367   c-1.961,0.165-3.554,1.431-4.78,3.8c-5.966,12.095-13.85,21.247-23.656,27.456c-4.332,3.268-8.172,2.819-11.521-1.348   c-0.573-1.634-0.45-2.942,0.368-3.923c2.942-2.286,5.883-4.29,8.825-6.006c11.767-7.845,18.957-17.445,21.573-28.805   c2.041-12.91,1.511-25.33-1.594-37.262C65.854,29.16,65.977,27.812,66.222,26.994z M99.193,54.696   c-7.682-0.246-14.016-0.163-18.999,0.245c-1.961,0.165-3.064,1.471-3.31,3.922c0,2.044-0.164,4.21-0.49,6.497   c-0.164,1.799,1.062,2.779,3.678,2.941c6.619,0.165,13.237,0.123,19.856-0.122c2.124-0.081,3.187-1.104,3.187-3.064v-6.251   C103.196,56.412,101.89,55.023,99.193,54.696z M98.825,31.162c-5.393-0.08-11.727,0.205-18.998,0.858   c-1.961,0.981-2.901,2.697-2.819,5.148c0.245,1.635,0.325,3.392,0.245,5.271c0,2.289,1.144,3.514,3.432,3.677   c6.454,0.245,13.033,0.287,19.734,0.123c1.961-0.326,2.941-1.471,2.941-3.432l-0.245-7.845   C102.706,32.837,101.277,31.572,98.825,31.162z"/>
</svg>
